<svg xmlns="http://www.w3.org/2000/svg" width="117" height="32" viewBox="0 0 117 32">
    <path fill="#FFF" fill-rule="evenodd" d="M55.438 21.58c-.425 2.581-1.68 3.557-1.68 3.557s-1.078.128-2.869-.782c-1.79-.91-2.437-2.46-2.182-4.371.255-1.91 2.282-4.523 4.65-3.886 2.37.635 2.454 3.213 2.08 5.482m-10.12 7.882c-3.38-.943-2.38-3.664-2.099-4.714.281-1.05 1.88-3.675 2.751-4.177 0 0-.035 2.626 1.049 4.232 1.136 1.684 1.57 2.18 5.11 3.593 0 0-3.432 2.01-6.811 1.066M37.695.106C51.4-.57 56.333 2.05 56.055 6.305c-.279 4.254-9.557 7.675-16.009 9.505-6.452 1.83-15.664 3.434-15.664 3.434 0 1.473 1.059 3.258 2.73 4.464 2.7 1.95 6.325 3.412 8.46 3.871 1.38.297 3.233.43 3.233.43-.695-1.309-1.074-3.876 2.1-7.553 3.042-3.524 6.226-3.64 6.486-3.644h.017c.836-1.447 3.768-2.832 5.666-2.907 1.898-.075 5.875-.143 7.497 4.166 1.621 4.309-.505 7.382-.505 7.382 4.764-.638 8.75-3.321 8.75-3.321s2.402-4.847 3.016-6.135c.613-1.287 1.335-2.09 2.922-1.43 1.587.661 1.249 1.401 1.078 1.882-.172.482-1.705 3.74-1.705 3.74 5.159-4.27 7.402-6.318 11.36-5.412 3.814.873 2.965 7.57 2.898 8.057l-.004.028s3.284-3.364 5.416-5.24c2.132-1.875 4.75-3.352 7.961-2.439 3.211.913 2.982 4.682 2.226 7.192-.657 2.18-1.37 6.423.002 6.934 1.01.377 2.2.113 3.781-.726 2.236-1.187 4.202-3.596 5.311-5.153.977-1.371 2.046-.916 2.735-.668.688.248 1.52.827 1.049 1.72-.935 1.773-3.58 4.546-5.788 5.908s-5.308 2.232-8.47 1.063c-3.627-1.34-3.615-5.036-2.582-9.35 1.032-4.316.475-4.855.475-4.855-3.143.746-7.859 5.95-10.171 8.975-2.293 3-3.235 4.799-4.147 5.424-.913.624-2.271.16-3.159-.333-.887-.493-.31-1.394-.154-1.886.157-.492 1.352-3.954 1.657-7.903.304-3.949-.347-4.48-.347-4.48-4.684 1.906-7.362 5.673-9.7 7.762-2.338 2.09-4.578 5.235-5.354 6.205-.775.97-1.811.843-2.896.675-1.085-.168-1.42-1.136-.952-2.165a206.327 206.327 0 0 1 1.391-2.942c-5.838 1.977-9.01 1.722-9.01 1.722-1.33 1.161-2.906 2.176-6.339 3.046-3.432.871-7.123.194-7.123.194-8.9-.096-16.279-2.898-20.216-5.627-4.089-2.834-4.332-6.532-4.115-7.368.218-.835 1.25-1.108 2.13-1.324.88-.216 5.1-.86 9.32-1.693 7.303-1.442 17.654-4.524 20.14-7.58 2.485-3.057-.939-4.667-4.06-5.386-3.121-.72-9.624-.623-17.472.345-7.847.968-15.064 2.876-19.035 4.427C6.913 8.886 4.542 10.1 4.53 11.35c-.01 1.137-.852 1.335-1.676 1.57l-.246.072c-.894.277-2.854.263-2.582-1.445C.298 9.84 4.174 6.91 9.34 5.31 14.508 3.712 23.991.781 37.695.106zm-13.923 5.26c1.192-1.085 2.752-.8 3.4-.628.649.171 1.598.736-1.86 3.539-3.457 2.802-9.158 9.767-12.043 13.01-2.684 3.016-4.514 6.323-5.351 7.48-1.051 1.454-.43 1.611-1.253 2.356-.772.698-1.885.936-2.936.865-.614-.042-1.47-.32-1.41-.941.061-.621.823-1.97 2.262-4.412 1.438-2.441 5.32-6.959 7.28-9.205 1.96-2.247 10.72-10.98 11.911-12.065z"/>
</svg>
